<?xml version="1.0" encoding="UTF-8"?>
<svg id="Calque_2" data-name="Calque 2" xmlns="http://www.w3.org/2000/svg" viewBox="0 0 149.4 161.9">
  <g id="Graphic_Elements" data-name="Graphic Elements">
    <g>
      <g>
        <path d="M28.4,139.84c1.83,1.46,4.93,3.84,7.9,3.84,1.28,0,2.24-.32,2.83-.82.78-.87.55-1.83-.09-2.37-2.42-2.06-9.64-4.89-9.64-9.59,0-6.26,7.08-11.6,11.15-13.34,2.19-.91,4.39-1.28,5.89.09,1.14,1.05,1.96,2.56,2.28,3.84.46,1.83-.64,3.61-1.32,4.57-1.19,1.6-2.51,3.93-3.15,5.07-.23.41-.5.64-1,.14-.87-.87-1.42-2.28-.46-4.43.96-2.19,4.39-5.98,3.29-7.13-1.55-1.6-12.79,5.39-13.02,11.1-.14,2.97,5.71,5.39,8.27,7.22,1.74,1.23,1.51,3.33-.5,5.66-2.74,3.15-10.69,4.02-17.13-3.75-.5-.59-.32-.91.09-1.05,1.51-.46,3.38-.05,4.61.96Z"/>
        <path d="M59.05,135.78c-.96,3.88-3.84,8.5-7.22,9.64-1.64.55-3.93.37-5.76-2.01-2.01-2.65-1.32-6.62.73-10.28,1.74-3.11,4.52-5.76,7.26-5.94,1.42-.09,2.19.32,3.11,1.55,1.05,1.42,2.42,1.74,2.15,5.02-.05.37-.05.69-.09,1.05.27,0,.55-.09.91-.09.32,0,.32.23.14.46-.32.37-.78.55-1.23.59ZM55.16,134.64c-.96-.73-2.06-2.33-2.1-4.02-1.23,1.05-2.56,2.56-3.52,4.29-1.92,3.47-2.6,7.67-1.42,8.68,1.28,1.05,4.07-.55,6.3-4.75.69-1.28,1.23-2.56,1.6-3.65-.32-.14-.59-.32-.87-.55ZM56.72,130.57c-.23-1.46-1.14-1.19-1.37.14-.23,1.23.27,2.56,1,3.24.37-1.42.5-2.56.37-3.38Z"/>
        <path d="M62.93,139.84c1.83,1.46,4.93,3.84,7.9,3.84,1.28,0,2.24-.32,2.83-.82.78-.87.55-1.83-.09-2.37-2.42-2.06-9.64-4.89-9.64-9.59,0-6.26,7.08-11.6,11.15-13.34,2.19-.91,4.39-1.28,5.89.09,1.14,1.05,1.96,2.56,2.28,3.84.46,1.83-.64,3.61-1.32,4.57-1.19,1.6-2.51,3.93-3.15,5.07-.23.41-.5.64-1,.14-.87-.87-1.42-2.28-.46-4.43.96-2.19,4.39-5.98,3.29-7.13-1.55-1.6-12.79,5.39-13.02,11.1-.14,2.97,5.71,5.39,8.27,7.22,1.74,1.23,1.51,3.33-.5,5.66-2.74,3.15-10.69,4.02-17.13-3.75-.5-.59-.32-.91.09-1.05,1.51-.46,3.38-.05,4.61.96Z"/>
        <path d="M79.56,139.02c1.14-3.33,4.16-8.73,5.85-11.1.41-.55.73-.68,1.1-.27.69.73,1.05,2.7-.05,4.98-.96,2.01-2.88,5.12-3.84,7.4-1.1,2.65-1,4.43.46,4.34,2.06-.09,4.57-3.11,5.94-6.26.23-.41.55-.37.73,0,.37.73.23,1.69-.32,2.83-1.37,2.83-4.25,4.75-6.81,4.75-3.47,0-4.34-2.92-3.06-6.67ZM89.74,127.1c-.59.64-1.87.5-2.56-.68-.73-1.23-.5-2.6.23-3.38.73-.78,2.06-.23,2.65,1,.59,1.19.27,2.42-.32,3.06Z"/>
        <path d="M98.74,146.88c-2.51,6.12-5.76,13.38-9.46,14.85-.91.37-1.83.23-2.65-.96-.96-1.37-1.78-2.97-.91-5.66,1.32-4.11,5.25-6.9,9.78-8.63.46-1.01.87-2.1,1.32-3.15-1.32,1.32-2.92,2.28-4.61,2.28-4.2,0-5.02-5.71-1.32-11.19,3.56-5.3,7.26-7.35,9.59-7.35,1.83,0,2.74,1.42,2.69,3.01.55-.91,1.05-1.74,1.51-2.51.37-.64.82-.69,1.14-.27.69.82,1.05,2.79-.09,5.02-1.37,2.74-4.25,8.27-6.17,12.7,3.84-1.92,6.35-4.43,8.18-6.85.27-.37.69-.37.78.09.09.41-.14,1.42-.91,2.65-1.78,2.79-5.07,4.61-8.86,5.98ZM87.55,159.17c.59.87,4.2-3.88,7.17-10.83-5.94,3.47-7.95,9.73-7.17,10.83ZM101.16,129.38c-1.42-.09-4.75,2.83-7.26,6.81-2.47,3.93-2.97,7.95-1.14,7.99,1.78.05,4.11-2.83,6.44-6.85,2.88-5.02,3.29-7.86,1.96-7.95Z"/>
        <path d="M120.94,127.1c1.51.23,2.92,2.47,1.78,4.84-.96,2.01-3.2,5.39-4.25,7.77-1.19,2.65-.91,4.8.73,4.71,1.87-.09,4.11-3.11,5.85-6.3.23-.41.55-.41.78-.05.32.5.23,1.55-.41,2.88-1.23,2.56-4.11,4.89-6.76,4.89-3.88,0-4.8-2.83-3.47-6.81,1.51-4.48,5.53-9.32,4.71-9.68-.46-.18-3.11,1.1-6.03,4.29-2.69,2.92-4.71,7.31-6.67,11.6-.18.41-.46.59-.87.18-.91-.91-1.19-2.42-.46-4.71.91-2.88,4.43-9.23,7.31-13.48.32-.5.69-.46.96,0,.69,1.14.64,2.7.14,4.34,2.06-2.19,5.16-4.71,6.67-4.48Z"/>
      </g>
      <g>
        <path d="M84.88,24.54c2.6-2.6,4.2-6.19,4.2-10.16,0-7.94-6.44-14.39-14.39-14.39-5.02,0-9.44,2.58-12.01,6.48-.68.68-57.95,71.27-58.48,72.08-2.6,2.6-4.2,6.19-4.2,10.16,0,7.94,6.44,14.39,14.39,14.39,5.02,0,9.44-2.58,12.01-6.48.68-.68,57.95-71.27,58.48-72.08Z"/>
        <path d="M118.02,58.04c2.6-2.6,4.21-6.2,4.21-10.17,0-7.94-6.44-14.39-14.39-14.39-5.03,0-9.44,2.58-12.01,6.48-.69.69-30.77,37.76-31.31,38.58-2.6,2.6-4.21,6.2-4.21,10.17,0,7.94,6.44,14.39,14.39,14.39,5.02,0,9.44-2.58,12.01-6.48.69-.69,30.77-37.76,31.31-38.58Z"/>
        <circle cx="135.01" cy="14.39" r="14.39" transform="translate(90.19 142.55) rotate(-76.81)"/>
        <circle cx="14.39" cy="14.39" r="14.39" transform="translate(-4.29 6.33) rotate(-21.66)"/>
      </g>
    </g>
  </g>
</svg>